<?xml version="1.0" encoding="UTF-8"?><svg id="logo" xmlns="http://www.w3.org/2000/svg" viewBox="0 0 1000 1000"><defs><style>.cls-1{fill:#193657;}.cls-2{fill:#f07d35;}</style></defs><path id="left_path" class="cls-1" d="M617.02,386.85c-.18,12.56,5.72,34.47,10.67,46.38,3.15,7.58,10.6,21.31,10.6,21.31l-136.35-77.24-200.21,114.01,1.86,4.88,199.29,116.95c-13.06,11.42-26.48,56.22-27.08,73.5l-174.08,101.57,176.01,103.46c.48,24.56-4.38,48.5,19.34,63.83-7.42-.75-17.7-5.94-24.5-9.35-62.09-31.12-136.34-78.03-196.58-114.83-15.89-9.71-38.55-17.98-40.13-39.17l.56-303.31c1.7-8.9,7.17-15.32,14.39-20.43,81.91-45.98,162.23-95.18,244.22-140.68,7.65-2.33,15.5.1,22.73,2.64l99.24,56.46ZM280.46,742.75l9.59-1.06c43.87-27.39,89.48-52.06,133.39-79.38,4.51-2.81,31.11-18.59,31.07-21.12l-174.04-101.55v203.09Z"/><path id="right_path" class="cls-2" d="M617.02,386.85c1.22-87.09,94.24-163.92,179.27-129.94,99.75,39.86,63.61,182.21-28.43,156.09-36.17-10.26-26.58-52.56-.97-52.91,13.06-.18,24.49,16.16,36.75-.35,12.68-17.09,1.03-42.11-14.59-53.03-37.36-26.11-92.35,0-111.73,36.96-10.91,20.82-16.57,59.35.54,78.09,14.8,16.21,59.04,32.22,78.26,47.47,6.67,5.29,11.62,10.98,13.25,19.64l.34,305.02c-2.89,19.39-28.69,29.6-44.28,38.89-66.61,39.68-136.42,77.15-203.08,118.01-7.77,3.63-16.64,5.6-25.24,4.74-23.73-15.33-18.86-39.27-19.34-63.83-1.28-65.23-1.88-151.83-1.93-205.03s14.02-62.08,27.08-73.5c.5-.44,134.91-71.39,190.21-110.57,1.7-1.2,8.98-8.39,8.98-8.39,0,0-58.16-31.86-63.79-39.65s-9.24-13.25-12.94-21.31-8.52-33.83-8.34-46.38ZM723.4,742.75v-198.26c0-.28-2.25-4.99-2.87-4.79l-167.94,97.04c-9.27,4.3-26.48,25.98-26.48,35.42v219.54l175.9-99.79-1.83-5.63-130.61-76.35c-15.72-18.91,1.32-47.47,25.64-39.16,40.3,17.17,81.93,53.94,121,70.47,1.72.73,6.21,2.53,7.19,1.52Z"/><path id="large_circle" class="cls-1" d="M577.83,197.76c66.24-11.48,58.57,88.08.39,76.04-40.96-8.48-37.24-69.65-.39-76.04Z"/><path id="medium_circle" class="cls-2" d="M676.5,104.8c30.51-5.88,42.03,45.6,10.67,51.4-39.62,7.33-44.28-44.93-10.67-51.4Z"/><path id="small_circle" class="cls-2" d="M732.69,193.81c23.11-1.85,24.71,31.5,5.08,34.35-25.6,3.72-30.29-32.34-5.08-34.35Z"/><path id="large_circle-2" class="cls-1" d="M236.27,293.05c66.24-11.48,58.57,88.08.39,76.04-40.96-8.48-37.24-69.65-.39-76.04Z"/><path id="small_circle-2" class="cls-2" d="M319.3,403.97c23.11-1.85,24.71,31.5,5.08,34.35-25.6,3.72-30.29-32.34-5.08-34.35Z"/><path id="medium_circle-2" class="cls-2" d="M351.4,317.99c30.51-5.88,42.03,45.6,10.67,51.4-39.62,7.33-44.28-44.93-10.67-51.4Z"/><path id="small_circle-3" class="cls-2" d="M384.18,482.73c23.11-1.85,24.71,31.5,5.08,34.35-25.6,3.72-30.29-32.34-5.08-34.35Z"/><path id="medium_circle-3" class="cls-2" d="M403.07,412.77c30.51-5.88,42.03,45.6,10.67,51.4-39.62,7.33-44.28-44.93-10.67-51.4Z"/><path id="small_circle-4" class="cls-2" d="M427.7,522.42c23.11-1.85,24.71,31.5,5.08,34.35-25.6,3.72-30.29-32.34-5.08-34.35Z"/></svg>