<?xml version="1.0" encoding="UTF-8"?><svg id="Layer_1" xmlns="http://www.w3.org/2000/svg" xmlns:xlink="http://www.w3.org/1999/xlink" viewBox="0 0 2000 1000"><defs><style>.cls-1,.cls-2{fill:#ef7d35;}.cls-1,.cls-3{letter-spacing:.1em;}.cls-4{letter-spacing:.1em;}.cls-5{letter-spacing:.1em;}.cls-5,.cls-6,.cls-7,.cls-8,.cls-9{fill:#193657;}.cls-10{letter-spacing:.08em;}.cls-11{fill:none;}.cls-12{clip-path:url(#clippath-1);}.cls-13{letter-spacing:.09em;}.cls-14{letter-spacing:.1em;}.cls-15{letter-spacing:.1em;}.cls-7{letter-spacing:.1em;}.cls-16{letter-spacing:.1em;}.cls-2{font-size:81.65px;}.cls-2,.cls-17{font-family:McLaren-Regular, McLaren;}.cls-8{letter-spacing:.1em;}.cls-17{font-size:205.52px;}.cls-9{letter-spacing:.09em;}.cls-18{clip-path:url(#clippath);}.cls-19{fill:#f07d35;}.cls-3{fill:#231f20;}.cls-20{letter-spacing:.1em;}</style><clipPath id="clippath"><rect class="cls-11" x="-78.83" y="172.95" width="619.97" height="619.97"/></clipPath><clipPath id="clippath-1"><rect class="cls-11" x="-78.83" y="172.95" width="619.97" height="619.97"/></clipPath></defs><g class="cls-18"><g class="cls-12"><path class="cls-6" d="M303.7,412.79c-.11,7.78,3.54,21.37,6.62,28.76,1.95,4.7,6.57,13.21,6.57,13.21l-84.53-47.88-124.12,70.69,1.15,3.02,123.56,72.51c-8.1,7.08-16.42,34.85-16.79,45.57l-107.93,62.97,109.12,64.14c.3,15.22-2.72,30.07,11.99,39.57-4.6-.46-10.97-3.68-15.19-5.79-38.49-19.29-84.53-48.38-121.87-71.19-9.85-6.02-23.9-11.14-24.88-24.29l.35-188.04c1.05-5.52,4.45-9.5,8.92-12.67,50.78-28.51,100.58-59.01,151.41-87.22,4.74-1.44,9.61.06,14.09,1.64l61.53,35.01ZM95.05,633.44l5.94-.65c27.2-16.98,55.48-32.28,82.7-49.21,2.8-1.74,19.29-11.53,19.26-13.09l-107.9-62.96v125.91Z"/><path class="cls-19" d="M303.7,412.79c.76-53.99,58.43-101.63,111.14-80.56,61.85,24.71,39.44,112.96-17.63,96.77-22.43-6.36-16.48-32.58-.6-32.81,8.1-.11,15.18,10.02,22.78-.22,7.86-10.6.64-26.11-9.04-32.88-23.16-16.19-57.25,0-69.27,22.92-6.77,12.91-10.27,36.8.33,48.42,9.18,10.05,36.61,19.97,48.52,29.43,4.14,3.28,7.2,6.81,8.21,12.17l.21,189.1c-1.79,12.02-17.78,18.35-27.45,24.11-41.3,24.6-84.58,47.83-125.91,73.16-4.82,2.25-10.32,3.47-15.65,2.94-14.71-9.51-11.69-24.35-11.99-39.57-.79-40.44-1.16-94.13-1.2-127.11-.03-32.98,8.69-38.49,16.79-45.57.31-.27,83.64-44.26,117.92-68.55,1.05-.75,5.57-5.2,5.57-5.2,0,0-36.06-19.75-39.55-24.58-3.49-4.83-5.73-8.21-8.02-13.21-2.29-5-5.28-20.97-5.17-28.76M369.66,633.44v-122.92c0-.17-1.4-3.09-1.78-2.97l-104.12,60.16c-5.75,2.67-16.42,16.11-16.42,21.96v136.11l109.05-61.86-1.13-3.49-80.97-47.34c-9.74-11.73.82-29.43,15.9-24.28,24.98,10.65,50.8,33.44,75.02,43.69,1.07.45,3.85,1.57,4.46.94"/><path class="cls-6" d="M279.41,295.56c41.07-7.11,36.31,54.61.24,47.14-25.4-5.26-23.09-43.18-.24-47.14"/><path class="cls-19" d="M340.58,237.93c18.92-3.65,26.06,28.27,6.61,31.87-24.56,4.55-27.45-27.85-6.61-31.87"/><path class="cls-19" d="M375.41,293.11c14.33-1.14,15.32,19.53,3.15,21.3-15.87,2.31-18.78-20.05-3.15-21.3"/><path class="cls-6" d="M67.65,354.63c41.07-7.11,36.31,54.61.24,47.14-25.4-5.26-23.09-43.18-.24-47.14"/><path class="cls-19" d="M119.12,423.4c14.33-1.14,15.32,19.53,3.15,21.3-15.87,2.31-18.78-20.05-3.15-21.3"/><path class="cls-19" d="M139.03,370.1c18.92-3.65,26.06,28.27,6.61,31.87-24.56,4.55-27.45-27.85-6.61-31.87"/><path class="cls-19" d="M159.35,472.23c14.33-1.14,15.32,19.53,3.15,21.3-15.87,2.31-18.78-20.05-3.15-21.3"/><path class="cls-19" d="M171.06,428.86c18.92-3.65,26.06,28.27,6.61,31.87-24.56,4.55-27.45-27.85-6.61-31.87"/><path class="cls-19" d="M186.33,496.84c14.33-1.14,15.32,19.53,3.15,21.3-15.87,2.31-18.78-20.05-3.15-21.3"/></g></g><text class="cls-17" transform="translate(505.93 557.51)"><tspan class="cls-7" x="0" y="0">un</tspan><tspan class="cls-7" x="296.59" y="0">b</tspan><tspan class="cls-9" x="449.71" y="0">o</tspan><tspan class="cls-8" x="592.08" y="0">x</tspan><tspan class="cls-5" x="722.92" y="0">ed</tspan><tspan class="cls-1" x="1021.72" y="0">JS</tspan><tspan class="cls-3" x="1331.45" y="0">™ </tspan></text><text class="cls-2" transform="translate(505.93 717.67)"><tspan class="cls-4" x="0" y="0">Simplif</tspan><tspan class="cls-10" x="328.71" y="0">y</tspan><tspan class="cls-4" x="380.13" y="0">. </tspan><tspan class="cls-4" x="438.21" y="0">So</tspan><tspan class="cls-15" x="556.04" y="0">l</tspan><tspan class="cls-13" x="586.81" y="0">v</tspan><tspan class="cls-20" x="639.43" y="0">e. Shi</tspan><tspan class="cls-14" x="905.32" y="0">p</tspan><tspan class="cls-16" x="965.95" y="0">.</tspan></text></svg>